<svg aria-hidden="true" style="position: absolute; width: 0; height: 0; overflow: hidden;" version="1.1" xmlns="http://www.w3.org/2000/svg" xmlns:xlink="http://www.w3.org/1999/xlink">
<defs>
<symbol id="icon_close" viewBox="0 0 32 32">
<title>icon_close</title>
<path stroke-width="3.5556" stroke-miterlimit="4" stroke-linecap="round" stroke-linejoin="miter" d="M30.222 30.222l-28.444-28.444M30.222 1.778l-28.444 28.444"></path>
</symbol>
<symbol id="logo" viewBox="0 0 41 32">
<title>logo_small</title>
<path d="M16.241 31.144v-4.916l-0.219-0.922v-8.384c0-1.785-0.527-3.16-1.58-4.126-1.024-0.995-2.575-1.492-4.653-1.492-1.375 0-2.721 0.234-4.038 0.702-1.317 0.439-2.429 1.039-3.336 1.8l-1.756-3.161c1.2-0.966 2.634-1.697 4.302-2.195 1.697-0.527 3.468-0.79 5.311-0.79 3.19 0 5.648 0.775 7.374 2.326s2.59 3.921 2.59 7.111v14.047h-3.994zM8.604 31.407c-1.727 0-3.248-0.293-4.565-0.878-1.288-0.585-2.283-1.39-2.985-2.414-0.702-1.053-1.054-2.239-1.054-3.556 0-1.258 0.293-2.4 0.878-3.424 0.615-1.024 1.595-1.844 2.941-2.458 1.375-0.615 3.219-0.922 5.531-0.922h7.375v3.029h-7.199c-2.107 0-3.526 0.351-4.258 1.053s-1.097 1.551-1.097 2.546c0 1.141 0.454 2.063 1.361 2.765 0.907 0.673 2.166 1.010 3.775 1.010 1.58 0 2.956-0.351 4.126-1.053 1.2-0.702 2.063-1.727 2.59-3.073l0.834 2.897c-0.556 1.375-1.536 2.473-2.941 3.292-1.405 0.79-3.175 1.185-5.311 1.185z"></path>
<path d="M29.718 31.407c-2.487 0-4.682-0.512-6.584-1.536-1.873-1.024-3.336-2.429-4.39-4.214-1.024-1.785-1.536-3.834-1.536-6.145s0.497-4.36 1.492-6.145c1.024-1.785 2.414-3.175 4.17-4.17 1.785-1.024 3.79-1.536 6.014-1.536 2.253 0 4.243 0.498 5.97 1.492s3.073 2.4 4.038 4.214c0.995 1.785 1.492 3.878 1.492 6.277 0 0.176-0.015 0.38-0.044 0.614 0 0.234-0.015 0.454-0.044 0.659h-19.797v-3.029h17.602l-1.712 1.053c0.029-1.492-0.278-2.824-0.922-3.995s-1.536-2.078-2.678-2.722c-1.112-0.673-2.414-1.010-3.907-1.010-1.463 0-2.765 0.337-3.907 1.010-1.141 0.644-2.034 1.566-2.678 2.765-0.644 1.171-0.966 2.517-0.966 4.038v0.702c0 1.551 0.351 2.941 1.053 4.17 0.732 1.2 1.741 2.136 3.029 2.809s2.765 1.010 4.433 1.010c1.375 0 2.619-0.234 3.731-0.702 1.141-0.468 2.136-1.171 2.985-2.107l2.327 2.721c-1.053 1.229-2.37 2.166-3.951 2.809-1.551 0.644-3.292 0.966-5.224 0.966z"></path>
<path d="M37.311 3.292h-15.364v-3.292h15.364v3.292z"></path>
</symbol>
<symbol id="icon_phone" viewBox="0 0 32 32">
<title>icon_phone</title>
<path d="M30.604 5.067l-4.26-4.255c-0.52-0.52-1.216-0.812-1.952-0.812s-1.432 0.288-1.952 0.812l-4.588 4.579c-0.52 0.52-0.812 1.22-0.812 1.956 0 0.74 0.288 1.432 0.812 1.956l3.584 3.588c-0.816 1.902-1.99 3.63-3.456 5.091-1.468 1.476-3.184 2.64-5.088 3.464l-3.584-3.588c-0.52-0.52-1.216-0.812-1.952-0.812-0.363-0.001-0.723 0.070-1.058 0.209s-0.639 0.344-0.894 0.603l-4.592 4.579c-0.52 0.52-0.812 1.22-0.812 1.956 0 0.74 0.288 1.432 0.812 1.956l4.256 4.256c0.888 0.888 2.112 1.396 3.368 1.396 0.26 0 0.512-0.020 0.768-0.064 5.296-0.872 10.552-3.692 14.796-7.931 4.24-4.247 7.056-9.503 7.936-14.802 0.252-1.504-0.252-3.052-1.332-4.136zM29.1 8.727c-0.78 4.715-3.316 9.419-7.136 13.238s-8.52 6.355-13.236 7.135c-0.592 0.1-1.2-0.1-1.632-0.528l-4.18-4.179 4.432-4.436 4.828 4.835 0.864-0.32c2.62-0.963 4.999-2.484 6.972-4.458s3.494-4.353 4.456-6.973l0.32-0.864-4.832-4.827 4.432-4.435 4.18 4.179c0.432 0.432 0.632 1.040 0.532 1.632z"></path>
</symbol>
<symbol id="icon_menu" viewBox="0 0 36 32">
<title>icon_menu</title>
<path d="M0 0h36v4h-36v-4zM12 14h24v4h-24v-4zM0 28h36v4h-36v-4z"></path>
</symbol>
</defs>
</svg>
